<svg xmlns="http://www.w3.org/2000/svg" viewBox="0 0 640 640">

<!--Sociales-->

<!--MAIL-->
<symbol id="mail" viewBox="0 0 640 640">
<path fill="currentColor" d="M125.4 128C91.5 128 64 155.5 64 189.4C64 190.3 64 191.1 64.1 192L64 192L64 448C64 483.3 92.7 512 128 512L512 512C547.3 512 576 483.3 576 448L576 192L575.9 192C575.9 191.1 576 190.3 576 189.4C576 155.5 548.5 128 514.6 128L125.4 128zM528 256.3L528 448C528 456.8 520.8 464 512 464L128 464C119.2 464 112 456.8 112 448L112 256.3L266.8 373.7C298.2 397.6 341.7 397.6 373.2 373.7L528 256.3zM112 189.4C112 182 118 176 125.4 176L514.6 176C522 176 528 182 528 189.4C528 193.6 526 197.6 522.7 200.1L344.2 335.5C329.9 346.3 310.1 346.3 295.8 335.5L117.3 200.1C114 197.6 112 193.6 112 189.4z"/>
</symbol>

<symbol id="linkedin" viewBox="0 0 640 640">
<path fill="currentColor" d="M416 32L31.9 32C14.3 32 0 46.5 0 64.3L0 447.7C0 465.5 14.3 480 31.9 480L416 480c17.6 0 32-14.5 32-32.3l0-383.4C448 46.5 433.6 32 416 32zM135.4 416l-66.4 0 0-213.8 66.5 0 0 213.8-.1 0zM102.2 96a38.5 38.5 0 1 1 0 77 38.5 38.5 0 1 1 0-77zM384.3 416l-66.4 0 0-104c0-24.8-.5-56.7-34.5-56.7-34.6 0-39.9 27-39.9 54.9l0 105.8-66.4 0 0-213.8 63.7 0 0 29.2 .9 0c8.9-16.8 30.6-34.5 62.9-34.5 67.2 0 79.7 44.3 79.7 101.9l0 117.2z"/>
</symbol>

<!--GITHUB-->
<symbol id="github" viewBox="0 0 640 640">
<path fill="currentColor" d="M237.9 461.4C237.9 463.4 235.6 465 232.7 465C229.4 465.3 227.1 463.7 227.1 461.4C227.1 459.4 229.4 457.8 232.3 457.8C235.3 457.5 237.9 459.1 237.9 461.4zM206.8 456.9C206.1 458.9 208.1 461.2 211.1 461.8C213.7 462.8 216.7 461.8 217.3 459.8C217.9 457.8 216 455.5 213 454.6C210.4 453.9 207.5 454.9 206.8 456.9zM251 455.2C248.1 455.9 246.1 457.8 246.4 460.1C246.7 462.1 249.3 463.4 252.3 462.7C255.2 462 257.2 460.1 256.9 458.1C256.6 456.2 253.9 454.9 251 455.2zM316.8 72C178.1 72 72 177.3 72 316C72 426.9 141.8 521.8 241.5 555.2C254.3 557.5 258.8 549.6 258.8 543.1C258.8 536.9 258.5 502.7 258.5 481.7C258.5 481.7 188.5 496.7 173.8 451.9C173.8 451.9 162.4 422.8 146 415.3C146 415.3 123.1 399.6 147.6 399.9C147.6 399.9 172.5 401.9 186.2 425.7C208.1 464.3 244.8 453.2 259.1 446.6C261.4 430.6 267.9 419.5 275.1 412.9C219.2 406.7 162.8 398.6 162.8 302.4C162.8 274.9 170.4 261.1 186.4 243.5C183.8 237 175.3 210.2 189 175.6C209.9 169.1 258 202.6 258 202.6C278 197 299.5 194.1 320.8 194.1C342.1 194.1 363.6 197 383.6 202.6C383.6 202.6 431.7 169 452.6 175.6C466.3 210.3 457.8 237 455.2 243.5C471.2 261.2 481 275 481 302.4C481 398.9 422.1 406.6 366.2 412.9C375.4 420.8 383.2 435.8 383.2 459.3C383.2 493 382.9 534.7 382.9 542.9C382.9 549.4 387.5 557.3 400.2 555C500.2 521.8 568 426.9 568 316C568 177.3 455.5 72 316.8 72zM169.2 416.9C167.9 417.9 168.2 420.2 169.9 422.1C171.5 423.7 173.8 424.4 175.1 423.1C176.4 422.1 176.1 419.8 174.4 417.9C172.8 416.3 170.5 415.6 169.2 416.9zM158.4 408.8C157.7 410.1 158.7 411.7 160.7 412.7C162.3 413.7 164.3 413.4 165 412C165.7 410.7 164.7 409.1 162.7 408.1C160.7 407.5 159.1 407.8 158.4 408.8zM190.8 444.4C189.2 445.7 189.8 448.7 192.1 450.6C194.4 452.9 197.3 453.2 198.6 451.6C199.9 450.3 199.3 447.3 197.3 445.4C195.1 443.1 192.1 442.8 190.8 444.4zM179.4 429.7C177.8 430.7 177.8 433.3 179.4 435.6C181 437.9 183.7 438.9 185 437.9C186.6 436.6 186.6 434 185 431.7C183.6 429.4 181 428.4 179.4 429.7z"/>
</symbol>


<!--DESARROLLO-->

<!--UNITY-->
<symbol id="unity"  viewBox="0 0 640 640">
<path fill="currentColor" d="M243.6 91.6l80.1 46.8c2.9 1.6 3 6.2 0 7.8l-95.2 55.6c-2.9 1.7-6.3 1.6-9 0l-95.2-55.6c-2.9-1.6-3-6.3 0-7.8l80.1-46.8 0-91.6-204.4 119.4 0 238.8 78.4-45.8 0-93.6c-.1-3.3 3.8-5.7 6.7-3.9l95.2 55.6c2.9 1.7 4.5 4.7 4.5 7.8l0 111.2c.1 3.3-3.8 5.7-6.7 3.9L98 346.8 19.6 392.6 224 512 428.4 392.6 350 346.8 269.9 393.6c-2.8 1.7-6.8-.5-6.7-3.9l0-111.2c0-3.3 1.8-6.3 4.5-7.8L362.9 215c2.8-1.7 6.8 .5 6.7 3.9l0 93.6 78.4 45.8 0-238.8-204.4-119.4 0 91.6z"/>
</symbol>

<symbol id="html" viewBox="0 0 640 640">
<path fill="currentColor"  d="M128 96L162.9 491.8L319.5 544L477.1 491.8L512 96L128 96zM436.2 223.9L252.4 223.9L256.5 273.3L432.1 273.3L418.5 421.7L320.6 448.7L320.6 449L319.5 449L220.8 421.7L214.8 345.9L262.5 345.9L266 384L319.5 398.5L373.2 384L379.2 321.8L212.3 321.8L199.5 176.2L440.6 176.2L436.2 223.9z"/>
</symbol>

<symbol id="css" viewBox="0 0 640 640">
<path fill="currentColor" d="M472.3 96L96 96L96 472.3C96 491.3 103.6 509.5 117 523C130.4 536.5 148.7 544 167.7 544L472.3 544C491.3 544 509.5 536.4 523 523C536.5 509.6 544 491.3 544 472.3L544 167.7C544 148.7 536.4 130.5 523 117C509.6 103.5 491.3 96 472.3 96zM428.4 495.4C420.7 486.9 416.7 474.7 416.4 458.8L447.7 458.8C447.9 472.9 452.8 479.9 462.5 479.9C467.4 479.9 470.9 478.3 473 475.2C475 472.1 476 467.2 476 460.4C476 455 474.7 450.5 472 447C468.5 442.8 463.9 439.5 458.8 437.5L447.2 432C436.9 427.1 429.4 421.2 424.7 414.4C420.2 407.6 418 398.1 418 386C418 372.4 422 361.4 429.8 352.9C437.9 344.4 448.9 340.2 463 340.2C476.6 340.2 487.1 344.4 494.5 352.7C502 361.1 506 373 506.3 388.6L476.2 388.6C476.4 383.5 475.3 378.4 473.2 373.8C471.5 370.4 468.2 368.7 463.2 368.7C454.4 368.7 450 373.9 450 384.4C450 389.7 451.1 393.8 453.2 397C456.3 400.5 460.2 403.2 464.6 404.8L475.7 409.7C487.2 415 495.4 421.4 500.5 429.1C505.6 436.8 508.1 447.1 508.1 460.1C508.1 475.6 504.1 487.5 495.8 495.8C487.6 504.1 476.3 508.3 461.7 508.3C447.1 508.3 436.1 504.1 428.3 495.6zM327.4 495.4C319.7 486.9 315.7 474.7 315.4 458.8L346.7 458.8C346.9 472.9 351.8 479.9 361.5 479.9C366.4 479.9 369.9 478.3 371.9 475.2C373.9 472.1 374.9 467.2 374.9 460.4C374.9 455 373.6 450.5 371 447C367.5 442.8 362.9 439.5 357.8 437.5L346.2 432C335.9 427.1 328.4 421.2 323.7 414.4C319.2 407.6 317 398.1 317 386C317 372.4 321 361.4 328.8 352.9C336.9 344.4 347.9 340.2 362 340.2C375.6 340.2 386.1 344.4 393.4 352.7C401 361.1 404.9 373 405.3 388.6L375.2 388.6C375.4 383.5 374.3 378.4 372.2 373.8C370.5 370.4 367.2 368.7 362.2 368.7C353.4 368.7 349 373.9 349 384.4C349 389.7 350.1 393.8 352.2 397C355.3 400.5 359.2 403.2 363.6 404.8L374.7 409.7C386.2 415 394.4 421.4 399.5 429.1C404.6 436.8 407.1 447.1 407.1 460.1C407.1 475.6 403 487.5 394.8 495.8C386.6 504.1 375.3 508.3 360.7 508.3C346.1 508.3 335.1 504.1 327.3 495.6zM221.8 496.5C213.4 488.8 209.3 477.3 209.3 462L209.3 386.6C209.3 371.4 213.7 359.9 222.5 352C231.4 344.2 243.2 340.2 257.7 340.2C271.8 340.2 282.9 344.2 291.1 352.2C299.4 360.2 303.6 372.2 303.6 388.1L303.6 394.1L270.5 394.1L270.5 388.3C270.5 382.2 269.2 377.6 266.5 374.7C265.4 373.2 263.9 372 262.2 371.2C260.5 370.4 258.7 370 256.8 370.1C251.4 370.1 247.6 371.9 245.4 375.7C243.1 380.9 242.1 386.5 242.4 392.1L242.4 457.6C242.4 471.3 247.2 478.2 256.8 478.4C261.3 478.4 264.7 476.8 267 473.6C269.5 469.5 270.7 464.8 270.5 460L270.5 455.1L303.6 455.1L303.6 460.2C303.6 470.8 301.5 479.7 297.4 486.8C293.4 493.7 287.5 499.3 280.3 502.8C272.6 506.5 264.2 508.3 255.7 508.1C241.5 508.1 230.2 504.2 221.9 496.5z"/>
</symbol>

<symbol id="javascript" viewBox="0 0 640 640">
<path fill="currentColor" d="M96 96L96 544L544 544L544 96L96 96zM339.8 445.4C339.8 489 314.2 508.9 276.9 508.9C243.2 508.9 223.7 491.5 213.7 470.4L248 449.7C254.6 461.4 260.6 471.3 275.1 471.3C288.9 471.3 297.7 465.9 297.7 444.8L297.7 301.7L339.8 301.7L339.8 445.4zM439.4 508.9C400.3 508.9 375 490.3 362.7 465.9L397 446.1C406 460.8 417.8 471.7 438.5 471.7C455.9 471.7 467.1 463 467.1 450.9C467.1 436.5 455.7 431.4 436.4 422.9L425.9 418.4C395.5 405.5 375.4 389.2 375.4 354.9C375.4 323.3 399.5 299.3 437 299.3C463.8 299.3 483 308.6 496.8 333L464 354C456.8 341.1 449 336 436.9 336C424.6 336 416.8 343.8 416.8 354C416.8 366.6 424.6 371.7 442.7 379.6L453.2 384.1C489 399.4 509.1 415.1 509.1 450.3C509.1 488.1 479.3 508.9 439.4 508.9z"/>
</symbol>

<symbol id="react" viewBox="0 0 640 640">
<path fill="currentColor" d="M482.2 241.2C476.8 239.4 471.4 237.7 466 236.1C466.9 232.4 467.7 228.7 468.5 225C480.8 165.4 472.7 117.5 445.4 101.7C419.1 86.6 376.2 102.3 332.8 140.1C328.5 143.8 324.3 147.7 320.3 151.6C317.6 149 314.8 146.4 312 143.9C266.5 103.5 220.9 86.5 193.6 102.4C167.4 117.6 159.6 162.7 170.6 219.1C171.7 224.7 172.9 230.2 174.3 235.8C167.9 237.6 161.6 239.6 155.7 241.7C102.3 260.2 64 289.4 64 319.6C64 350.8 104.8 382.1 160.3 401.1C164.8 402.6 169.3 404.1 173.9 405.4C172.4 411.4 171.1 417.3 169.9 423.4C159.4 478.9 167.6 522.9 193.8 538C220.8 553.6 266.2 537.6 310.4 498.9C313.9 495.8 317.4 492.6 320.9 489.2C325.3 493.5 329.9 497.6 334.5 501.6C377.3 538.4 419.6 553.3 445.7 538.2C472.7 522.6 481.5 475.3 470.1 417.7C469.2 413.3 468.2 408.8 467.1 404.2C470.3 403.3 473.4 402.3 476.5 401.3C534.2 382.2 576 351.3 576 319.6C576 289.3 536.6 259.9 482.2 241.2zM346.9 156.3C384.1 123.9 418.8 111.2 434.6 120.3C451.5 130 458 169.2 447.4 220.7C446.7 224.1 446 227.4 445.1 230.7C422.9 225.7 400.4 222.1 377.8 220.1C364.8 201.5 350.6 183.7 335.2 167C339.1 163.3 342.9 159.8 346.9 156.3zM231.2 371.5C236.3 380.2 241.5 388.9 247 397.4C231.4 395.7 215.9 393.2 200.6 389.9C205 375.5 210.5 360.6 216.9 345.4C221.5 354.2 226.2 362.9 231.2 371.5zM200.9 251.2C215.3 248 230.6 245.4 246.5 243.4C241.2 251.7 236 260.2 231.1 268.8C226.2 277.3 221.4 286 216.9 294.8C210.6 279.9 205.3 265.3 200.9 251.2zM228.3 320.1C234.9 306.3 242.1 292.8 249.7 279.5C257.3 266.2 265.5 253.3 274.1 240.6C289.1 239.5 304.4 238.9 320 238.9C335.6 238.9 351 239.5 365.9 240.6C374.4 253.2 382.5 266.1 390.2 279.3C397.9 292.5 405.1 306 411.9 319.7C405.2 333.5 398 347.1 390.3 360.5C382.7 373.8 374.6 386.7 366.1 399.5C351.2 400.6 335.7 401.1 320 401.1C304.3 401.1 289.1 400.6 274.4 399.7C265.7 387 257.5 374 249.8 360.7C242.1 347.4 235 333.9 228.3 320.1zM408.9 371.3C414 362.5 418.8 353.6 423.5 344.6C429.9 359.1 435.5 373.8 440.4 388.9C424.9 392.4 409.2 395.1 393.4 396.9C398.8 388.5 403.9 379.9 408.9 371.3zM423.3 294.8C418.6 286 413.8 277.2 408.8 268.6C403.9 260.1 398.8 251.7 393.5 243.4C409.6 245.4 425 248.1 439.4 251.4C434.8 266.2 429.4 280.6 423.3 294.8zM320.2 182.3C330.7 193.7 340.6 205.7 349.8 218.1C330 217.2 310.1 217.2 290.3 218.1C300.1 205.2 310.2 193.2 320.2 182.3zM204.2 121C221 111.2 258.3 125.2 297.6 160C300.1 162.2 302.6 164.6 305.2 167C289.7 183.7 275.4 201.5 262.3 220.1C239.7 222.1 217.3 225.6 195.1 230.5C193.8 225.4 192.7 220.2 191.6 215C182.2 166.6 188.4 130.1 204.2 121zM179.7 384.6C175.5 383.4 171.4 382.1 167.3 380.7C146 374 121.8 363.4 104.3 349.5C94.2 342.5 87.4 331.7 85.5 319.6C85.5 301.3 117.1 277.9 162.7 262C168.4 260 174.2 258.2 180 256.5C186.8 278.2 195 299.5 204.5 320.1C194.9 341 186.6 362.6 179.7 384.6zM296.3 482.6C279.8 497.7 260.7 509.7 239.9 517.9C228.8 523.2 216 523.7 204.6 519.2C188.7 510 182.1 474.7 191.1 427.2C192.2 421.6 193.4 416 194.8 410.5C217.2 415.3 239.8 418.6 262.7 420.3C275.9 439 290.4 456.9 305.9 473.7C302.7 476.8 299.5 479.8 296.3 482.6zM320.8 458.3C310.6 447.3 300.4 435.1 290.5 422C300.1 422.4 310 422.6 320 422.6C330.3 422.6 340.4 422.4 350.4 421.9C341.2 434.6 331.3 446.7 320.8 458.3zM451.5 488.3C450.6 500.5 444.6 511.9 435 519.6C419.1 528.8 385.2 516.8 348.6 485.4C344.4 481.8 340.2 477.9 335.9 473.9C351.2 457 365.3 439.1 378.1 420.3C401 418.4 423.8 414.9 446.3 409.8C447.3 413.9 448.2 418 449 422C453.9 443.6 454.7 466.1 451.5 488.3zM469.7 380.8C466.9 381.7 464.1 382.6 461.2 383.4C454.2 361.6 445.6 340.3 435.7 319.6C445.3 299.2 453.4 278.2 460.2 256.7C465.4 258.2 470.4 259.8 475.2 261.4C521.8 277.4 554.5 301.2 554.5 319.4C554.5 339 519.6 364.3 469.7 380.8zM320 365.8C345.3 365.8 365.8 345.3 365.8 320C365.8 294.7 345.3 274.2 320 274.2C294.7 274.2 274.2 294.7 274.2 320C274.2 345.3 294.7 365.8 320 365.8z"/>
</symbol>

<!-- viewBox="0 0 32 32" -->

<symbol id="csharp" viewBox="0 0 32 32">

<path d="M27.6947 22.9999C27.883 22.6617 28 22.2807 28 21.9385V10.0613C28 9.71913 27.8831 9.33818 27.6947 9L16 16L27.6947 22.9999Z" fill="#7F3A86"/>
<path d="M17.0395 29.7433L26.9611 23.8047C27.2469 23.6336 27.5067 23.3382 27.695 23L16.0003 16L4.30566 23C4.49398 23.3382 4.75382 23.6337 5.03955 23.8047L14.9611 29.7433C15.5326 30.0855 16.468 30.0855 17.0395 29.7433Z" fill="#662579"/>
<path d="M27.6947 8.99996C27.5064 8.6617 27.2465 8.36629 26.9608 8.19521L17.0392 2.25662C16.4677 1.91446 15.5323 1.91446 14.9608 2.25662L5.03922 8.19521C4.46761 8.53729 4 9.37709 4 10.0613V21.9386C4 22.2807 4.11694 22.6618 4.30533 23L16 16L27.6947 8.99996Z" fill="#9A5196"/>
<path d="M16.0385 24C11.6061 24 8 20.4112 8 16C8 11.5888 11.6061 8 16.0385 8C18.8458 8 21.4674 9.47569 22.919 11.8618L19.4765 13.9265C18.7492 12.736 17.4399 12 16.0385 12C13.8222 12 12.0193 13.7944 12.0193 16C12.0193 18.2056 13.8222 20 16.0385 20C17.4362 20 18.7421 19.2681 19.4707 18.0832L22.9205 20.1359C21.4692 22.5234 18.8467 24 16.0385 24Z" fill="white"/>
<path fill-rule="evenodd" clip-rule="evenodd" d="M25.0001 13V13.9974H22.9999V13H22.0001V13.9974H21V15H22.0001V16.9948H21V18H22.0001V19H22.9999L23 18H25.0001V19H25.9999V18H27V17H25.9999V15H27V13.9974H25.9999V13H25.0001ZM25.0001 17V15H22.9999V16.9948L25.0001 17Z" fill="white"/>
</symbol>

<symbol id="" viewBox="0 0 640 640">

</symbol>

<symbol id="" viewBox="0 0 640 640">

</symbol>

<symbol id="" viewBox="0 0 640 640">

</symbol>


<symbol id="git"  viewBox="0 0 640 640">
<path fill="currentColor" d="M535.6 300.1L340 104.5C334.6 99 327.2 96 319.6 96C312 96 304.6 99 299.2 104.4L258.5 145L310 196.5C337.1 187.4 362.7 213.3 353.4 240.2L403.1 289.9C437.3 278.1 464.3 320.9 438.6 346.6C412.1 373.1 368.4 343.7 382.6 309.3L336.3 263L336.3 384.9C361.6 397.4 358.6 426.7 345.4 439.9C339 446.3 330.2 450 321.1 450C312 450 303.3 446.4 296.8 439.9C279.2 422.3 285.7 393 308 383.9L308 260.9C287.2 252.4 283.4 230.2 289.4 215.9L238.6 165L104.5 299.1C99 304.6 96 311.9 96 319.5C96 327.1 99 334.5 104.5 339.9L300.1 535.6C305.5 541 312.8 544 320.5 544C328.2 544 335.5 541 340.9 535.6L535.6 340.9C541 335.5 544 328.1 544 320.5C544 312.9 541 305.5 535.6 300.1z"/>
</symbol>


</svg>